HIERARCHY
ROOT root
{
	OFFSET	0	13.1	24.9
	CHANNELS 6  Xposition Yposition Zposition Xrotation Yrotation Zrotation
	JOINT spine_1
	{
		OFFSET	0	9.99999	0
		CHANNELS 3  Xrotation Yrotation Zrotation
		JOINT spine_2
		{
			OFFSET	0	112	-10
			CHANNELS 3  Xrotation Yrotation Zrotation
			JOINT spine_3
			{
				OFFSET	0	206.5	19.3
				CHANNELS 3  Xrotation Yrotation Zrotation
				JOINT spine_4
				{
					OFFSET	0	110.4	14.6
					CHANNELS 3  Xrotation Yrotation Zrotation
					JOINT neck_1
					{
						OFFSET	0	71.8	-50.3
						CHANNELS 3  Xrotation Yrotation Zrotation
						JOINT neck_2
						{
							OFFSET	0	86.2	-25.8
							CHANNELS 3  Xrotation Yrotation Zrotation
							JOINT head_ee
							{
								OFFSET	0	179.8	-8.7
								CHANNELS 3  Xrotation Yrotation Zrotation
								End Site
								{
									OFFSET	1	0	0
								}
							}
						}
					}
					JOINT left_clavicle
					{
						OFFSET	-43.2	22.4	-70.8
						CHANNELS 3  Xrotation Yrotation Zrotation
						JOINT left_shoulder
						{
							OFFSET	-93.9	-5.79999	48.7
							CHANNELS 3  Xrotation Yrotation Zrotation
							JOINT left_elbow
							{
								OFFSET	-291.4	-30.8	15.2
								CHANNELS 3  Xrotation Yrotation Zrotation
								JOINT left_lowarm_twist
								{
									OFFSET	-110.7	-3.89999	13.6
									CHANNELS 3  Xrotation Yrotation Zrotation
									JOINT left_hand
									{
										OFFSET	-110.7	-3.89999	13.6
										CHANNELS 3  Xrotation Yrotation Zrotation
										JOINT left_ee
										{
											OFFSET	-80.8	-5.10001	12.1
											CHANNELS 3  Xrotation Yrotation Zrotation
											End Site
											{
												OFFSET	1	0	0
											}
										}
									}
								}
							}
						}
					}
					JOINT right_clavicle
					{
						OFFSET	43.2	22.4	-70.8
						CHANNELS 3  Xrotation Yrotation Zrotation
						JOINT right_shoulder
						{
							OFFSET	93.9	-5.79999	48.7
							CHANNELS 3  Xrotation Yrotation Zrotation
							JOINT right_elbow
							{
								OFFSET	291.4	-30.8	15.2
								CHANNELS 3  Xrotation Yrotation Zrotation
								JOINT right_lowarm_twist
								{
									OFFSET	110.7	-3.89999	13.6
									CHANNELS 3  Xrotation Yrotation Zrotation
									JOINT right_hand
									{
										OFFSET	110.7	-3.89999	13.6
										CHANNELS 3  Xrotation Yrotation Zrotation
										JOINT right_ee
										{
											OFFSET	80.8	-5.10001	12.1
											CHANNELS 3  Xrotation Yrotation Zrotation
											End Site
											{
												OFFSET	1	0	0
											}
										}
									}
								}
							}
						}
					}
				}
			}
		}
	}
	JOINT left_hip
	{
		OFFSET	-82.8	-127.5	0.300001
		CHANNELS 3  Xrotation Yrotation Zrotation
		JOINT left_knee
		{
			OFFSET	-28.2	-396.7	2.2
			CHANNELS 3  Xrotation Yrotation Zrotation
			JOINT left_ankle
			{
				OFFSET	-11.7	-411.3	35.4
				CHANNELS 3  Xrotation Yrotation Zrotation
				JOINT left_toes
				{
					OFFSET	0	-60	-88.6
					CHANNELS 3  Xrotation Yrotation Zrotation
					JOINT left_foot_ee
					{
						OFFSET	-22.5	-16.5	-42.2
						CHANNELS 3  Xrotation Yrotation Zrotation
						End Site
						{
							OFFSET	1	0	0
						}
					}
				}
			}
		}
	}
	JOINT right_hip
	{
		OFFSET	82.8	-127.5	0.300001
		CHANNELS 3  Xrotation Yrotation Zrotation
		JOINT right_knee
		{
			OFFSET	28.2	-396.7	2.2
			CHANNELS 3  Xrotation Yrotation Zrotation
			JOINT right_ankle
			{
				OFFSET	11.7	-411.3	35.4
				CHANNELS 3  Xrotation Yrotation Zrotation
				JOINT right_toes
				{
					OFFSET	0	-60	-88.6
					CHANNELS 3  Xrotation Yrotation Zrotation
					JOINT right_foot_ee
					{
						OFFSET	22.5	-16.5	-42.2
						CHANNELS 3  Xrotation Yrotation Zrotation
						End Site
						{
							OFFSET	1	0	0
						}
					}
				}
			}
		}
	}
}
MOTION
Frames: 7
Frame Time: 0.02
1372.05 701.618 -1475.22 -17.0552659603 41.6232354031 11.8928789403 3.45382 -0.260129 0.525477 3.45392 -0.293039 0.50786 3.45126 -0.366349 0.457802 3.45109 -0.289451 0.509914 -14.9482 12.1283 -1.15896 -15.4702 23.8772 3.07278 -0.0 0.0 -0.0 5.77557 -3.56592 11.0845 -10.9429 -17.2781 53.872 1.93939 -43.8475 0.780624 -4.33868 -0.172928 0.526811 -0.740834 1.9973 -4.08219 -0.0 0.0 -0.0 6.83831 5.3327 -13.2011 -34.4663 12.2556 -68.5205 0.579448 16.0158 -0.0815184 -4.90338 0.198359 -0.594383 1.00443 -6.53582 -9.32089 0.0 0.0 0.0 -1.9233 6.24008 2.63561 -9.50926 0.273202 1.43213 32.881 16.5733 -4.26253 -18.0996 0.0 0.0 -0.0 0.0 -0.0 35.9813 6.60633 -0.38 6.9967 0.350663 1.01534 -8.92483 6.06004 -1.37374 2.97743 -0.0 -0.0 0.0 0.0 0.0 
1359.83170705 698.884 -1491.41137984 -17.4769427037 42.1057076532 12.0586342226 3.53065 -0.221738 0.649631 3.53084 -0.262626 0.634205 3.52783 -0.354576 0.587764 3.52744 -0.257302 0.636384 -14.8439 11.7063 -1.73099 -15.3321 23.4051 2.35763 -0.0 0.0 -0.0 5.76735 -3.04113 11.0843 -12.3662 -18.2109 54.0127 1.80682 -41.826 0.690476 -4.63438 -0.186161 0.562225 -0.661844 0.719279 -4.11153 -0.0 0.0 -0.0 7.24451 5.90237 -14.0278 -34.1688 12.7697 -68.4034 0.509004 14.1521 -0.0631841 -5.64322 0.232684 -0.682532 0.741918 -7.2885 -7.88282 0.0 0.0 0.0 -2.26719 6.30481 2.75047 -11.4112 0.299114 1.7228 34.0198 17.0763 -4.38809 -17.3035 0.0 0.0 -0.0 0.0 -0.0 36.2758 6.93658 -0.627748 5.57885 0.269599 0.813091 -10.4926 5.94249 -1.61784 3.16219 -0.0 -0.0 0.0 0.0 0.0 
1360.05140915 698.884 -1491.57485498 -17.2708771772 41.3674627275 11.7490971741 3.53065 -0.221738 0.649631 3.53084 -0.262626 0.634205 3.52783 -0.354576 0.587764 3.52744 -0.257302 0.636384 -14.8439 11.7063 -1.73099 -15.3321 23.4051 2.35763 -0.0 0.0 -0.0 5.76735 -3.04113 11.0843 -12.3662 -18.2109 54.0127 1.80682 -41.826 0.690476 -4.63438 -0.186161 0.562225 -0.661844 0.719279 -4.11153 -0.0 0.0 -0.0 7.24451 5.90237 -14.0278 -34.1688 12.7697 -68.4034 0.509004 14.1521 -0.0631841 -5.64322 0.232684 -0.682532 0.741918 -7.2885 -7.88282 0.0 0.0 0.0 -2.26719 6.30481 2.75047 -11.4112 0.299114 1.7228 34.0198 17.0763 -4.38809 -17.3035 0.0 0.0 -0.0 0.0 -0.0 36.2758 6.93658 -0.627748 5.57885 0.269599 0.813091 -10.4926 5.94249 -1.61784 3.16219 -0.0 -0.0 0.0 0.0 0.0 
1352.63247573 701.105 -1513.42216214 -19.0587682383 41.3579944671 13.2108862504 3.39579 -0.125684 0.78719 3.39612 -0.175518 0.777598 3.39359 -0.291647 0.741896 3.39286 -0.170822 0.778643 -13.0688 10.6365 -2.65548 -13.3761 21.8914 0.734539 -0.0 0.0 -0.0 5.22413 -3.006 9.99642 -13.5668 -20.0139 53.542 1.63724 -39.0404 0.580462 -4.6735 -0.187925 0.566906 -0.39692 0.340313 -2.50548 -0.0 0.0 -0.0 7.6721 6.79891 -14.9007 -31.6582 12.0815 -69.8273 0.478984 13.3482 -0.0560484 -5.87874 0.243851 -0.710501 0.507236 -9.64943 -7.27333 0.0 0.0 0.0 -1.47605 5.00431 2.10831 -11.6891 0.302091 1.76533 32.0166 17.0158 -4.17745 -17.1575 0.0 0.0 -0.0 0.0 -0.0 36.3024 7.91682 -2.18345 6.43769 0.318103 0.935834 -13.3849 6.84101 -2.07969 3.21824 -0.0 -0.0 0.0 0.0 0.0 
1340.57756339 702.278 -1531.17564627 -19.9510297464 41.1272239406 13.2748917097 3.53749 -0.0162225 0.843868 3.53789 -0.0698852 0.841126 3.53667 -0.194836 0.821229 3.53574 -0.0626978 0.841692 -12.3193 10.4101 -3.30971 -12.5705 21.8628 -0.115544 -0.0 0.0 -0.0 5.48355 -2.54682 10.5315 -15.3009 -18.4329 54.1569 1.50543 -36.7112 0.499521 -4.7757 -0.19255 0.579126 -0.39951 0.110993 -2.6211 -0.0 0.0 -0.0 8.00784 6.99072 -15.602 -31.5052 13.8935 -68.9664 0.440242 12.3028 -0.0474481 -6.37435 0.267724 -0.769207 0.584858 -8.38758 -7.28473 0.0 0.0 0.0 -0.0764258 6.19977 2.27575 -14.0214 0.318942 2.12277 34.3376 17.596 -4.42891 -16.7026 0.0 0.0 -0.0 0.0 -0.0 36.1533 7.40948 -2.1724 6.2823 0.309191 0.913679 -13.6445 6.46724 -2.11679 3.16198 -0.0 -0.0 0.0 0.0 0.0 
1341.66807209 702.278 -1531.7751684 -19.6286680066 40.0821681959 12.7796103235 3.53749 -0.0162225 0.843868 3.53789 -0.0698852 0.841126 3.53667 -0.194836 0.821229 3.53574 -0.0626978 0.841692 -12.3193 10.4101 -3.30971 -12.5705 21.8628 -0.115544 -0.0 0.0 -0.0 5.48355 -2.54682 10.5315 -15.3009 -18.4329 54.1569 1.50543 -36.7112 0.499521 -4.7757 -0.19255 0.579126 -0.39951 0.110993 -2.6211 -0.0 0.0 -0.0 8.00784 6.99072 -15.602 -31.5052 13.8935 -68.9664 0.440242 12.3028 -0.0474481 -6.37435 0.267724 -0.769207 0.584858 -8.38758 -7.28473 0.0 0.0 0.0 -0.0764258 6.19977 2.27575 -14.0214 0.318942 2.12277 34.3376 17.596 -4.42891 -16.7026 0.0 0.0 -0.0 0.0 -0.0 36.1533 7.40948 -2.1724 6.2823 0.309191 0.913679 -13.6445 6.46724 -2.11679 3.16198 -0.0 -0.0 0.0 0.0 0.0 
1292.1188372 719.519 -1590.59737419 -20.5663826135 40.4189088528 13.4240021165 3.83408 0.292355 0.943214 3.83455 0.231746 0.959904 3.83819 0.0908653 0.983291 3.83692 0.24501 0.956604 -8.44576 8.2437 -7.21514 -8.32792 20.4471 -5.29448 -0.0 0.0 -0.0 4.75278 -1.80172 9.10746 -23.2062 -18.054 56.8163 1.16864 -30.0659 0.313866 -4.71312 -0.189716 0.571645 0.293824 -1.44837 1.35748 -0.0 0.0 -0.0 8.89893 8.19171 -17.4746 -27.7817 16.4874 -67.9646 0.386467 10.838 -0.0366614 -8.19236 0.359634 -0.982762 -0.14257 -11.2219 -3.72731 0.0 0.0 0.0 3.55635 5.54838 1.20268 -19.7894 0.298085 3.00714 38.5102 17.824 -4.84356 -16.3979 0.0 0.0 -0.0 0.0 -0.0 33.8256 7.54212 -3.46817 1.94829 0.0851186 0.286831 -11.7693 8.79648 -1.84397 3.07567 -0.0 -0.0 0.0 0.0 0.0 
